<?xml version="1.0" standalone="no"?>
<!DOCTYPE svg PUBLIC "-//W3C//DTD SVG 20010904//EN"
 "http://www.w3.org/TR/2001/REC-SVG-20010904/DTD/svg10.dtd">
<svg version="1.0" xmlns="http://www.w3.org/2000/svg"
 width="16.000000pt" height="16.000000pt" viewBox="0 0 16.000000 16.000000"
 preserveAspectRatio="xMidYMid meet">
<metadata>
Created by potrace 1.11, written by Peter Selinger 2001-2013
</metadata>
<g transform="translate(0.000000,16.000000) scale(0.006250,-0.006250)"
fill="#000000" stroke="none">
<path d="M0 2070 l0 -489 57 -3 56 -3 97 -290 97 -290 61 190 c33 105 75 236
93 293 l32 102 83 0 c46 0 84 -3 84 -7 0 -4 -59 -173 -132 -375 l-131 -368
-96 0 -96 0 -89 248 c-50 136 -96 261 -103 277 -10 25 -12 -94 -13 -662 l0
-693 1280 0 1280 0 0 404 0 405 -64 -1 c-70 -2 -109 16 -127 56 l-11 23 -66
-34 c-135 -69 -304 -62 -385 15 -67 63 -87 172 -48 257 36 79 98 108 289 136
171 25 196 38 200 101 3 40 -1 48 -28 71 -82 69 -261 32 -284 -58 -6 -24 -9
-25 -86 -25 l-80 0 0 28 c1 78 80 166 178 198 79 26 238 26 307 0 70 -26 114
-62 136 -110 16 -36 19 -68 19 -278 0 -224 1 -238 19 -248 11 -5 22 -10 25
-10 3 0 6 367 6 815 l0 815 -1280 0 -1280 0 0 -490z m1103 -490 c86 -27 164
-96 208 -185 25 -51 32 -81 36 -149 l6 -86 -283 0 -282 0 7 -37 c18 -103 71
-164 154 -182 96 -21 192 21 222 97 8 20 15 22 88 22 l80 0 -8 -28 c-45 -154
-218 -250 -399 -222 -154 25 -257 121 -292 272 -15 65 -12 188 6 249 60 206
255 311 457 249z m747 -60 l0 -80 -57 0 c-98 -1 -160 -41 -201 -130 -13 -28
-17 -81 -20 -257 l-4 -223 -84 0 -84 0 0 375 0 375 80 0 80 0 0 -72 0 -73 23
39 c43 76 128 125 220 126 l47 0 0 -80z"/>
<path d="M920 1454 c-55 -24 -99 -73 -115 -128 -8 -27 -15 -51 -15 -53 0 -2
88 -3 195 -3 l195 0 0 23 c-1 32 -33 98 -61 124 -55 50 -134 65 -199 37z"/>
<path d="M2319 1190 c-9 -5 -50 -14 -90 -20 -166 -23 -214 -49 -226 -123 -5
-31 -1 -40 24 -65 53 -53 167 -61 243 -16 56 33 71 62 77 153 6 81 3 89 -28
71z"/>
</g>
</svg>
